<svg xmlns="http://www.w3.org/2000/svg" xmlns:xlink="http://www.w3.org/1999/xlink" width="500" zoomAndPan="magnify" viewBox="0 0 375 374.999991" height="500" preserveAspectRatio="xMidYMid meet" version="1.0"><defs><clipPath id="c378a7a197"><path d="M 18.75 101 L 138 101 L 138 274 L 18.75 274 Z M 18.75 101 " clip-rule="nonzero"/></clipPath><clipPath id="5abe7f39ed"><path d="M 237 101 L 356.25 101 L 356.25 274 L 237 274 Z M 237 101 " clip-rule="nonzero"/></clipPath><clipPath id="6301d84aa1"><path d="M 128 56.488281 L 245 56.488281 L 245 318.238281 L 128 318.238281 Z M 128 56.488281 " clip-rule="nonzero"/></clipPath></defs><path fill="#03fa6e" d="M 125.226562 269.898438 C 123.363281 269.898438 121.523438 269.273438 120.058594 268.109375 L 25.671875 193.921875 C 23.640625 192.328125 22.476562 189.9375 22.476562 187.363281 C 22.476562 184.789062 23.640625 182.398438 25.664062 180.792969 L 120.058594 106.621094 C 121.523438 105.453125 123.363281 104.828125 125.226562 104.828125 C 127.804688 104.828125 130.210938 105.980469 131.792969 108.011719 C 133.171875 109.761719 133.800781 111.953125 133.53125 114.160156 C 133.273438 116.378906 132.148438 118.355469 130.398438 119.734375 L 44.371094 187.363281 L 130.398438 254.976562 C 132.148438 256.371094 133.273438 258.347656 133.53125 260.554688 C 133.800781 262.773438 133.171875 264.949219 131.792969 266.714844 C 130.210938 268.734375 127.804688 269.898438 125.226562 269.898438 " fill-opacity="1" fill-rule="nonzero"/><g clip-path="url(#c378a7a197)"><path fill="#2a446b" d="M 125.226562 101.269531 C 122.566406 101.269531 119.957031 102.167969 117.867188 103.816406 L 23.46875 178.003906 C 20.570312 180.292969 18.917969 183.695312 18.917969 187.363281 C 18.917969 191.035156 20.582031 194.449219 23.46875 196.722656 L 117.867188 270.910156 C 119.945312 272.546875 122.566406 273.457031 125.226562 273.457031 C 128.914062 273.457031 132.332031 271.792969 134.597656 268.90625 C 136.578125 266.414062 137.445312 263.300781 137.074219 260.140625 C 136.691406 256.984375 135.109375 254.152344 132.605469 252.1875 L 50.125 187.363281 L 132.605469 122.539062 C 135.109375 120.558594 136.691406 117.742188 137.074219 114.585938 C 137.445312 111.425781 136.578125 108.3125 134.597656 105.808594 C 132.332031 102.921875 128.902344 101.269531 125.226562 101.269531 Z M 125.226562 108.382812 C 126.652344 108.382812 128.0625 109.007812 129 110.203125 C 130.652344 112.296875 130.28125 115.3125 128.203125 116.945312 L 38.605469 187.363281 L 128.203125 257.78125 C 130.28125 259.414062 130.652344 262.433594 129 264.507812 C 128.0625 265.71875 126.652344 266.34375 125.226562 266.34375 C 124.1875 266.34375 123.148438 266.015625 122.265625 265.320312 L 27.867188 191.132812 C 26.714844 190.222656 26.039062 188.828125 26.039062 187.363281 C 26.039062 185.882812 26.714844 184.503906 27.867188 183.59375 L 122.265625 109.40625 C 123.132812 108.710938 124.1875 108.382812 125.226562 108.382812 " fill-opacity="1" fill-rule="nonzero"/></g><path fill="#03fa6e" d="M 249.773438 269.898438 C 247.195312 269.898438 244.800781 268.734375 243.195312 266.714844 C 240.34375 263.101562 240.972656 257.835938 244.601562 254.976562 L 330.640625 187.363281 L 244.601562 119.734375 C 240.972656 116.890625 240.34375 111.625 243.195312 108.011719 C 244.800781 105.980469 247.195312 104.828125 249.773438 104.828125 C 251.636719 104.828125 253.476562 105.453125 254.941406 106.621094 L 349.339844 180.792969 C 351.363281 182.398438 352.515625 184.789062 352.515625 187.363281 C 352.515625 189.9375 351.363281 192.328125 349.324219 193.921875 L 254.941406 268.109375 C 253.476562 269.273438 251.636719 269.898438 249.773438 269.898438 " fill-opacity="1" fill-rule="nonzero"/><g clip-path="url(#5abe7f39ed)"><path fill="#2a446b" d="M 249.773438 101.269531 C 246.097656 101.269531 242.679688 102.921875 240.402344 105.808594 C 236.328125 110.972656 237.226562 118.46875 242.394531 122.539062 L 324.875 187.363281 L 242.394531 252.1875 C 237.226562 256.242188 236.328125 263.753906 240.402344 268.90625 C 242.679688 271.792969 246.097656 273.457031 249.773438 273.457031 C 252.433594 273.457031 255.042969 272.546875 257.132812 270.910156 L 351.53125 196.722656 C 354.421875 194.449219 356.074219 191.035156 356.074219 187.363281 C 356.074219 183.695312 354.421875 180.292969 351.546875 178.003906 L 257.148438 103.816406 C 255.054688 102.167969 252.433594 101.269531 249.773438 101.269531 Z M 249.773438 108.382812 C 250.8125 108.382812 251.867188 108.710938 252.734375 109.40625 L 347.132812 183.59375 C 348.285156 184.503906 348.957031 185.882812 348.957031 187.363281 C 348.957031 188.828125 348.285156 190.222656 347.132812 191.132812 L 252.734375 265.320312 C 251.867188 266.015625 250.8125 266.34375 249.773438 266.34375 C 248.347656 266.34375 246.9375 265.71875 246 264.507812 C 244.359375 262.433594 244.71875 259.414062 246.796875 257.78125 L 336.394531 187.363281 L 246.796875 116.945312 C 244.71875 115.3125 244.359375 112.296875 246 110.203125 C 246.9375 109.007812 248.363281 108.382812 249.773438 108.382812 " fill-opacity="1" fill-rule="nonzero"/></g><path fill="#03fa6e" d="M 140.59375 314.667969 C 139.554688 314.667969 138.542969 314.46875 137.574219 314.097656 C 135.496094 313.289062 133.84375 311.722656 132.945312 309.6875 C 132.035156 307.640625 131.992188 305.378906 132.789062 303.300781 L 224.980469 65.394531 C 226.21875 62.207031 229.351562 60.058594 232.769531 60.058594 C 233.808594 60.058594 234.835938 60.257812 235.804688 60.628906 C 240.089844 62.292969 242.238281 67.144531 240.574219 71.441406 L 148.394531 309.332031 C 147.15625 312.519531 144.011719 314.667969 140.59375 314.667969 " fill-opacity="1" fill-rule="nonzero"/><g clip-path="url(#6301d84aa1)"><path fill="#2a446b" d="M 232.769531 56.503906 C 227.886719 56.503906 223.414062 59.574219 221.664062 64.113281 L 129.472656 302.007812 C 128.332031 304.980469 128.402344 308.210938 129.683594 311.125 C 130.980469 314.027344 133.316406 316.277344 136.292969 317.414062 C 137.671875 317.953125 139.113281 318.222656 140.59375 318.222656 C 145.476562 318.222656 149.949219 315.164062 151.714844 310.613281 L 243.890625 72.71875 C 246.269531 66.589844 243.207031 59.675781 237.070312 57.3125 C 235.703125 56.773438 234.25 56.503906 232.769531 56.503906 Z M 232.769531 63.617188 C 233.351562 63.617188 233.9375 63.730469 234.507812 63.941406 C 236.984375 64.894531 238.210938 67.671875 237.253906 70.144531 L 145.0625 308.039062 C 144.339844 309.945312 142.515625 311.113281 140.59375 311.113281 C 140.007812 311.113281 139.425781 311.011719 138.855469 310.785156 C 136.378906 309.832031 135.152344 307.042969 136.121094 304.582031 L 228.296875 66.6875 C 229.039062 64.78125 230.847656 63.617188 232.769531 63.617188 " fill-opacity="1" fill-rule="nonzero"/></g></svg>